<?xml version="1.0"?>
<svg version="1.1" xmlns="http://www.w3.org/2000/svg" width="400px" height="217px" style="border:2px solid red"><path fill="#c575f0" d="M25.34,125.3l-0.252-1.484c-0.392,0.392-1.82,1.764-4.228,1.764c-3.92,0-5.74-2.856-5.74-7.476c0-5.264,2.52-8.204,7.644-8.204c0.672,0,1.484,0.14,2.1,0.28l0-3.556l-2.24-0.56l0-2.24l6.44-0.224l0,18.704l2.24,0.56l0,2.24z M24.864,120.624l0-6.944c-0.532-0.252-1.372-0.42-2.184-0.42c-2.38,0-3.22,1.82-3.22,4.62c0,2.828,0.784,4.34,2.688,4.34c1.792,0,2.716-1.596,2.716-1.596z M36.52628,105.56c0-1.596,1.148-2.52,2.408-2.52c1.456,0,2.352,0.756,2.352,2.52c0,1.652-1.204,2.548-2.352,2.548c-1.512,0-2.408-0.896-2.408-2.548z M41.23028,122.36l1.96,0.7l0,2.24l-8.4,0l0-2.24l2.24-0.7l0-9.1l-2.24-0.7l0-2.24l6.44-0.14l0,12.18z M60.62056,118.664l-9.296,0c0.168,2.24,1.456,3.556,3.388,3.556c2.324,0,4.704-1.316,4.704-1.316l1.204,2.324s-2.8,2.352-6.384,2.352c-4.816,0-7.28-2.8-7.28-7.56c0-4.9,2.772-8.12,7.476-8.12c4.172,0,6.356,2.576,6.356,6.58c0,1.064-0.168,2.1-0.168,2.184z M51.38056,116.06l5.068,0c0-1.596-0.672-2.8-2.296-2.8c-1.568,0-2.548,1.148-2.772,2.8z M70.15484,122.78l4.144,0c3.556,0,5.6,1.54,5.6,4.34c0,3.08-2.464,5.32-7.84,5.32c-4.396,0-7.224-0.98-7.224-4.06c0-2.408,2.94-3.36,2.94-3.36s-1.68-0.252-1.68-1.848c0-0.812,1.12-2.632,1.456-3.164c-0.672-0.448-2.156-1.652-2.156-4.368c0-3.836,2.884-5.74,6.72-5.74c1.624,0,2.772,0.42,3.304,0.672l4.816-0.112l0,2.24l-2.296,0.392c0.056,0.252,0.476,1.008,0.476,2.212c0,4.06-2.856,5.74-6.72,5.74c-0.756,0-1.316-0.14-1.428-0.14z M71.97484,112.784c-1.68,0-2.38,0.896-2.38,2.66c0,1.68,0.644,2.8,2.24,2.8c1.764,0,2.38-0.924,2.38-2.8c0-1.764-0.7-2.66-2.24-2.66z M73.17884,125.86l-2.94,0s-1.344,0.616-1.344,1.82c0,1.4,1.204,1.68,3.5,1.68c2.52,0,3.584-0.56,3.584-1.904c0-1.26-0.924-1.596-2.8-1.596z M91.28112,109.9c4.536,0,7.056,2.744,7.056,7.56c0,5.04-2.94,8.12-7.476,8.12c-4.564,0-7.14-2.38-7.14-7.7c0-5.04,2.996-7.98,7.56-7.98z M91.14112,113.26c-2.044,0-3.08,1.12-3.08,4.48c0,3.08,0.896,4.48,2.94,4.48c2.016,0,2.996-1.26,2.996-4.62c0-2.856-0.84-4.34-2.856-4.34z M104.8474,120.4l0.224,1.82s0.98,0.28,2.352,0.28c1.54,0,2.296-0.476,2.296-1.372c0-2.296-7.476-1.456-7.476-6.44c0-3.5,2.8-4.788,5.768-4.788c2.52,0,5.208,0.84,5.208,0.84l-0.112,4.2l-2.38,0l-0.42-1.68s-0.812-0.28-1.932-0.28c-1.204,0-1.932,0.504-1.932,1.428c0,2.268,7.476,1.288,7.476,6.132c0,3.22-2.604,5.04-6.44,5.04c-2.66,0-5.152-0.616-5.152-0.616l0-4.564l2.52,0z M125.93196,110.32l5.964-0.14l0.252,1.568s1.904-1.848,4.144-1.848c3.892,0,5.824,2.884,5.824,7.42c0,5.18-2.464,8.26-7.364,8.26c-0.812,0-1.652-0.112-2.38-0.28l0,3.556l2.66,0.644l0,2.24l-9.044,0l0-2.24l2.184-0.644l0-15.596l-2.24-0.7l0-2.24z M132.37196,114.8l0,7.14c0.448,0.196,1.12,0.42,2.184,0.42c2.408,0,3.22-1.68,3.22-4.536c0-2.828-0.756-4.564-2.8-4.564c-1.82,0-2.604,1.54-2.604,1.54z M152.04224,110.18l0.252,1.932s2.016-2.212,3.892-2.212c1.54,0,2.604,0.504,2.604,0.504l-0.224,5.376l-2.52,0l-0.42-2.38c-1.624,0-3.024,1.568-3.024,1.568l0,7.392l2.8,0.7l0,2.24l-9.24,0l0-2.24l2.24-0.7l0-9.1l-2.24-0.7l0-2.24z M163.59252,105.56c0-1.596,1.148-2.52,2.408-2.52c1.456,0,2.352,0.756,2.352,2.52c0,1.652-1.204,2.548-2.352,2.548c-1.512,0-2.408-0.896-2.408-2.548z M168.29652,122.36l1.96,0.7l0,2.24l-8.4,0l0-2.24l2.24-0.7l0-9.1l-2.24-0.7l0-2.24l6.44-0.14l0,12.18z M182.3388,112.56l0-2.24l7.336-0.14l0,2.38l-1.596,0.364l-4.508,12.376l-4.62,0l-4.424-12.292l-1.344-0.448l0-2.24l7.336-0.14l0,2.38l-1.568,0.28l2.548,8.26l2.464-8.176z M202.28908,125.3l-0.504-1.82s-2.156,2.1-4.536,2.1c-2.716,0-4.368-1.596-4.368-4.396c0-3.304,2.492-4.62,6.748-4.62l1.96,0l0-1.54c0-1.428-0.756-2.044-2.156-2.044c-1.428,0-2.464,0.42-2.464,0.42l-0.42,1.764l-2.52,0l-0.196-4.144s3.388-1.12,6.076-1.12c4.256,0,5.88,1.484,5.88,5.544l0,6.916l2.1,0.504l0,2.24z M201.58908,118.944l-1.596,0c-2.184,0-3.052,0.56-3.052,1.82c0,1.064,0.588,1.68,1.652,1.68c1.484,0,2.996-1.624,2.996-1.624l0-1.876z M221.45536,121.716l1.008,2.128c-1.372,1.008-2.94,1.736-4.76,1.736c-3.22,0-4.144-2.24-4.144-5.46l0-6.44l-2.604,0l0-2.716l2.604-0.364l0-3.864l4.2-0.756l0,4.62l3.92,0l0,3.08l-3.92,0l0,6.16c0,1.792,0.308,2.52,1.484,2.52c0.756,0,1.848-0.448,2.212-0.644z M239.33364,118.664l-9.296,0c0.168,2.24,1.456,3.556,3.388,3.556c2.324,0,4.704-1.316,4.704-1.316l1.204,2.324s-2.8,2.352-6.384,2.352c-4.816,0-7.28-2.8-7.28-7.56c0-4.9,2.772-8.12,7.476-8.12c4.172,0,6.356,2.576,6.356,6.58c0,1.064-0.168,2.1-0.168,2.184z M230.09364,116.06l5.068,0c0-1.596-0.672-2.8-2.296-2.8c-1.568,0-2.548,1.148-2.772,2.8z M251.5142,110.32l5.964-0.14l0.252,1.568s1.904-1.848,4.144-1.848c3.892,0,5.824,2.884,5.824,7.42c0,5.18-2.464,8.26-7.364,8.26c-0.812,0-1.652-0.112-2.38-0.28l0,3.556l2.66,0.644l0,2.24l-9.044,0l0-2.24l2.184-0.644l0-15.596l-2.24-0.7l0-2.24z M257.9542,114.8l0,7.14c0.448,0.196,1.12,0.42,2.184,0.42c2.408,0,3.22-1.68,3.22-4.536c0-2.828-0.756-4.564-2.8-4.564c-1.82,0-2.604,1.54-2.604,1.54z M277.62448,110.18l0.252,1.932s2.016-2.212,3.892-2.212c1.54,0,2.604,0.504,2.604,0.504l-0.224,5.376l-2.52,0l-0.42-2.38c-1.624,0-3.024,1.568-3.024,1.568l0,7.392l2.8,0.7l0,2.24l-9.24,0l0-2.24l2.24-0.7l0-9.1l-2.24-0.7l0-2.24z M296.98676,125.3l-0.504-1.82s-2.156,2.1-4.536,2.1c-2.716,0-4.368-1.596-4.368-4.396c0-3.304,2.492-4.62,6.748-4.62l1.96,0l0-1.54c0-1.428-0.756-2.044-2.156-2.044c-1.428,0-2.464,0.42-2.464,0.42l-0.42,1.764l-2.52,0l-0.196-4.144s3.388-1.12,6.076-1.12c4.256,0,5.88,1.484,5.88,5.544l0,6.916l2.1,0.504l0,2.24z M296.28676,118.944l-1.596,0c-2.184,0-3.052,0.56-3.052,1.82c0,1.064,0.588,1.68,1.652,1.68c1.484,0,2.996-1.624,2.996-1.624l0-1.876z M318.11304,120.736l1.4,2.464c-0.7,0.616-2.884,2.38-6.02,2.38c-4.62,0-7.28-2.856-7.28-7.616c0-4.984,2.8-8.064,7.7-8.064c2.408,0,4.9,0.98,4.9,0.98l-0.14,4.592l-2.52,0l-0.392-1.988s-0.812-0.224-1.932-0.224c-2.016,0-3.276,1.344-3.276,4.144c0,3.052,1.176,4.816,3.5,4.816c1.96,0,3.192-0.98,4.06-1.484z M332.79932,121.716l1.008,2.128c-1.372,1.008-2.94,1.736-4.76,1.736c-3.22,0-4.144-2.24-4.144-5.46l0-6.44l-2.604,0l0-2.716l2.604-0.364l0-3.864l4.2-0.756l0,4.62l3.92,0l0,3.08l-3.92,0l0,6.16c0,1.792,0.308,2.52,1.484,2.52c0.756,0,1.848-0.448,2.212-0.644z M338.7496,105.56c0-1.596,1.148-2.52,2.408-2.52c1.456,0,2.352,0.756,2.352,2.52c0,1.652-1.204,2.548-2.352,2.548c-1.512,0-2.408-0.896-2.408-2.548z M343.4536,122.36l1.96,0.7l0,2.24l-8.4,0l0-2.24l2.24-0.7l0-9.1l-2.24-0.7l0-2.24l6.44-0.14l0,12.18z M361.07988,120.736l1.4,2.464c-0.7,0.616-2.884,2.38-6.02,2.38c-4.62,0-7.28-2.856-7.28-7.616c0-4.984,2.8-8.064,7.7-8.064c2.408,0,4.9,0.98,4.9,0.98l-0.14,4.592l-2.52,0l-0.392-1.988s-0.812-0.224-1.932-0.224c-2.016,0-3.276,1.344-3.276,4.144c0,3.052,1.176,4.816,3.5,4.816c1.96,0,3.192-0.98,4.06-1.484z M379.49016,118.664l-9.296,0c0.168,2.24,1.456,3.556,3.388,3.556c2.324,0,4.704-1.316,4.704-1.316l1.204,2.324s-2.8,2.352-6.384,2.352c-4.816,0-7.28-2.8-7.28-7.56c0-4.9,2.772-8.12,7.476-8.12c4.172,0,6.356,2.576,6.356,6.58c0,1.064-0.168,2.1-0.168,2.184z M370.25016,116.06l5.068,0c0-1.596-0.672-2.8-2.296-2.8c-1.568,0-2.548,1.148-2.772,2.8z"/><path fill="#" d=""/></svg>
